<?xml version="1.0" encoding="utf-8"?>
<!-- Generator: Adobe Illustrator 26.3.1, SVG Export Plug-In . SVG Version: 6.00 Build 0)  -->
<svg version="1.0" id="Слой_1" xmlns="http://www.w3.org/2000/svg" xmlns:xlink="http://www.w3.org/1999/xlink" x="0px" y="0px"
	 viewBox="0 0 595.28 841.89" style="enable-background:new 0 0 595.28 841.89;" xml:space="preserve">
<style type="text/css">
	.st0{fill:#030304;}
	.st1{fill:#FFFFFF;}
	.st2{fill:#E52521;}
</style>
<circle class="st0" cx="298" cy="422.56" r="120"/>
<path class="st1" d="M217.39,467.07c60.2-56.09,120.41-112.17,180.61-168.26l8.55,10.7L220.08,470.44
	c-1.79,0.72-3.44,0.81-3.91,0.12c-0.73-1.06,1.35-3.93,1.59-3.82c0.1,0.04,0.02,0.63-0.12,0.65
	C217.58,467.39,217.5,467.31,217.39,467.07z"/>
<path class="st2" d="M374.35,320.85l9.1,8.6l23.1-19.94c-0.09-1.06-0.54-5.2-3.98-8.24c-1.67-1.48-3.44-2.15-4.56-2.47
	C390.12,306.16,382.24,313.5,374.35,320.85z"/>
<path class="st1" d="M232.23,484.58c24.07,27.01,60.5,38.85,94.47,30.48c43.33-10.68,61.42-49.01,63.63-53.9
	c-8.32,8.54-31.72,30.32-69.33,37.6C276.45,507.38,241.86,489.88,232.23,484.58z"/>
<g>
	<path class="st1" d="M246.69,406.35c0.15,0.18,0.48,0.31,0.99,0.39c0.51,0.08,1.21,0.12,2.09,0.13c0.57,0,1.14-0.03,1.71-0.06
		c0.58-0.04,1.15-0.07,1.73-0.1c0.26,0,0.59-0.01,1-0.01c0.41,0,0.89-0.01,1.44-0.02c0.38-0.02,0.78-0.05,1.19-0.09
		s0.83-0.09,1.28-0.17c0.33-0.02,0.69-0.04,1.08-0.06c0.39-0.03,0.83-0.07,1.32-0.13c0.27-0.05,0.57,0.03,0.91,0.23
		c0.34,0.2,0.71,0.51,1.1,0.94l0.18,0.45l-0.08,0.18c-0.09,0.08-0.24,0.14-0.45,0.19c-0.21,0.05-0.49,0.1-0.83,0.15
		c-0.07,0.01-0.35,0.09-0.86,0.22c-0.51,0.14-1.23,0.34-2.17,0.61c-0.51,0.16-1.01,0.27-1.49,0.34c-0.48,0.07-0.95,0.1-1.4,0.09
		c-0.27,0-0.59,0.01-0.96,0.05c-0.37,0.04-0.8,0.1-1.28,0.19c-0.49,0.09-0.93,0.16-1.31,0.19c-0.39,0.04-0.7,0.06-0.94,0.06
		c-0.82,0.02-1.46,0.05-1.94,0.11c-0.48,0.05-0.77,0.13-0.89,0.23c0.02,0.2,0.08,0.37,0.18,0.51c0.25,0.51,0.59,1.14,1.01,1.88
		c0.42,0.74,0.93,1.6,1.51,2.57c0.13,0.15,0.2,0.29,0.21,0.41c0.01,0.12-0.04,0.23-0.14,0.32c-0.35,0.3-0.68,0.44-1.01,0.42
		c-0.32-0.02-0.63-0.2-0.92-0.53c-0.39-0.46-0.77-0.96-1.13-1.51c-0.37-0.55-0.72-1.16-1.06-1.82c-0.16-0.28-0.31-0.52-0.45-0.73
		s-0.28-0.4-0.42-0.56c-0.35-0.41-0.83-0.61-1.43-0.61c-0.6,0.01-0.96-0.05-1.06-0.18c-0.17-0.2-0.29-0.39-0.35-0.59
		c-0.07-0.2-0.08-0.39-0.04-0.58c0.13-0.44,0.25-0.85,0.36-1.23c0.03-0.09,0.02-0.19-0.03-0.29c-0.05-0.1-0.14-0.23-0.27-0.38
		c-0.08-0.09-0.16-0.18-0.25-0.29c-0.09-0.1-0.17-0.2-0.25-0.29c-0.65-0.82-1.33-1.66-2.04-2.53c-0.05-0.06-0.14-0.16-0.25-0.29
		c-0.12-0.13-0.27-0.3-0.47-0.5c-0.15-0.14-0.29-0.29-0.39-0.44c-0.11-0.15-0.21-0.28-0.31-0.39c-0.21-0.13-0.38-0.25-0.53-0.34
		c-0.15-0.1-0.28-0.2-0.37-0.32c-0.09-0.11-0.22-0.28-0.4-0.52c-0.18-0.24-0.3-0.41-0.39-0.51c-0.11-0.12-0.27-0.29-0.48-0.49
		c-0.21-0.2-0.37-0.36-0.47-0.48c-0.27-0.32-0.46-0.69-0.57-1.11c-0.1-0.42-0.13-0.9-0.07-1.44c0.08-0.5,0.22-0.95,0.42-1.34
		s0.46-0.72,0.78-1c0.15-0.13,0.39-0.31,0.7-0.54c0.32-0.23,0.56-0.42,0.73-0.57c0.12-0.1,0.52-0.27,1.2-0.52
		c0.22-0.16,0.42-0.29,0.61-0.39c0.19-0.11,0.35-0.18,0.47-0.23c0.31-0.08,0.56-0.15,0.73-0.2c0.17-0.05,0.29-0.09,0.35-0.13
		c0.2-0.08,0.37-0.14,0.51-0.2c0.14-0.06,0.27-0.09,0.39-0.1c0.16-0.05,0.35-0.1,0.57-0.16s0.46-0.13,0.73-0.21
		c0.46-0.11,0.92-0.18,1.38-0.21s0.93-0.02,1.39,0.02c0.56,0.08,1.04,0.21,1.45,0.39c0.41,0.19,0.74,0.43,1,0.73
		c0.08,0.09,0.18,0.22,0.3,0.4c0.13,0.18,0.26,0.38,0.4,0.62c0.19,0.28,0.3,0.67,0.31,1.18c0.01,0.5-0.05,1.13-0.21,1.87
		c-0.13,0.65-0.29,1.23-0.46,1.74c-0.17,0.51-0.36,0.93-0.58,1.27c-0.05,0.18-0.07,0.33-0.07,0.46c-0.01,0.17-0.09,0.45-0.24,0.85
		c-0.15,0.4-0.37,0.94-0.65,1.59c-0.52,1.2-0.91,2.02-1.16,2.48C246.61,405.88,246.55,406.19,246.69,406.35z M239.78,401.11
		c0.06-0.27,0.12-0.53,0.17-0.78c0.05-0.25,0.19-0.48,0.43-0.68c0.11-0.09,0.34-0.09,0.7,0.02s0.58,0.21,0.68,0.33
		c0.05,0.06,0.15,0.22,0.3,0.48c0.15,0.26,0.33,0.62,0.56,1.09c0.53,1.04,0.88,1.68,1.04,1.92c0.16,0.24,0.39,0.63,0.7,1.17
		c0.06,0.15,0.16,0.33,0.28,0.55c0.07,0.08,0.13,0.12,0.2,0.13c0.06,0.01,0.12-0.01,0.17-0.05c1.01-2.4,1.54-3.65,1.57-3.74
		c0.06-0.08,0.11-0.17,0.16-0.27c0.05-0.1,0.1-0.2,0.14-0.29l-0.02-0.42c0.24-0.77,0.47-1.58,0.71-2.42
		c0.12-0.56,0.15-1.05,0.1-1.45c-0.05-0.4-0.19-0.73-0.41-0.99c-0.28-0.33-0.75-0.49-1.41-0.49c-0.66,0.01-1.5,0.19-2.51,0.55
		c-0.87,0.3-1.62,0.61-2.26,0.95c-0.64,0.34-1.18,0.69-1.61,1.06c-0.57,0.49-0.92,0.95-1.04,1.4c-0.12,0.45-0.01,0.87,0.32,1.26
		c0.26,0.3,0.48,0.51,0.65,0.63S239.72,401.19,239.78,401.11z"/>
	<path class="st1" d="M259.9,402.91c-0.43-0.5-0.77-0.94-1.02-1.31c-0.25-0.38-0.44-0.69-0.55-0.93c-0.15-0.14-0.3-0.27-0.47-0.41
		c-0.16-0.19-0.4-0.52-0.73-0.99c-0.33-0.48-0.75-1.1-1.26-1.88c-0.5-0.75-0.88-1.33-1.13-1.75c-0.26-0.42-0.41-0.68-0.45-0.78
		c-0.15-0.14-0.31-0.28-0.48-0.44c-0.17-0.16-0.38-0.32-0.62-0.49l-0.48,0.04l-0.2-0.1c-0.2-0.26-0.39-0.53-0.6-0.8
		c-0.2-0.27-0.39-0.55-0.57-0.84c-0.26-0.34-0.45-0.65-0.59-0.95c-0.14-0.3-0.25-0.57-0.33-0.81c-0.01-0.07-0.04-0.15-0.07-0.26
		s-0.07-0.23-0.09-0.36c-0.19-0.39-0.39-0.78-0.58-1.17c-0.19-0.39-0.38-0.77-0.54-1.15c-0.12-0.42-0.14-0.83-0.05-1.23
		c0.09-0.4,0.29-0.78,0.6-1.14c0.13-0.35,0.26-0.63,0.38-0.85c0.12-0.22,0.24-0.37,0.34-0.47c0.12-0.11,0.26-0.14,0.42-0.1
		c0.16,0.04,0.31,0.14,0.46,0.32c0.06,0.07,0.24,0.35,0.53,0.83c0.29,0.48,0.68,1.17,1.17,2.04c0.19,0.27,0.39,0.61,0.62,1
		s0.49,0.88,0.79,1.44c0.32,0.64,0.68,1.33,1.08,2.07c0.41,0.74,0.88,1.53,1.42,2.38c0.23,0.36,0.45,0.72,0.66,1.07
		c0.21,0.36,0.43,0.72,0.66,1.07c0.26,0.41,0.51,0.8,0.74,1.16c0.24,0.36,0.47,0.67,0.69,0.93c0.08,0.1,0.17,0.19,0.26,0.26
		c0.09,0.08,0.17,0.16,0.24,0.24c0.1,0.08,0.21,0.21,0.32,0.39s0.25,0.39,0.42,0.64c0.15,0.24,0.28,0.46,0.4,0.66
		c0.12,0.2,0.22,0.34,0.3,0.43c0.39,0.45,0.71,0.81,0.97,1.07s0.44,0.43,0.55,0.49c0.27,0.19,0.55,0.39,0.85,0.62
		c0.13,0.15,0.12,0.55-0.03,1.19c-0.15,0.64-0.31,1.04-0.49,1.19c-0.11,0.09-0.24,0.14-0.38,0.13c-0.15,0-0.33-0.04-0.55-0.12
		c-0.18-0.09-0.34-0.18-0.48-0.26c-0.13-0.09-0.24-0.18-0.33-0.28c-0.05-0.05-0.1-0.15-0.16-0.3c-0.06-0.15-0.12-0.25-0.16-0.3
		c-0.3-0.21-0.57-0.36-0.81-0.46c0.06,0.1,0.03,0.09-0.07-0.03C260.4,403.5,260.2,403.26,259.9,402.91z"/>
	<path class="st1" d="M277.62,388.17c-0.09,0.43-0.22,0.95-0.39,1.56c-0.17,0.61-0.38,1.3-0.64,2.07c-0.25,0.69-0.47,1.29-0.67,1.81
		c-0.2,0.52-0.38,0.93-0.55,1.24c-0.22,0.48-0.5,0.93-0.85,1.36c-0.35,0.43-0.73,0.82-1.16,1.19c-0.13,0.11-0.3,0.22-0.5,0.32
		c-0.2,0.1-0.41,0.2-0.65,0.31c-0.28,0.14-0.53,0.25-0.73,0.34c-0.2,0.09-0.35,0.18-0.47,0.26l-0.3-0.02l-0.43,0.28
		c-0.18,0.14-0.45,0.22-0.83,0.26c-0.37,0.04-0.82,0.04-1.34-0.01c-0.49-0.04-0.93-0.11-1.3-0.21c-0.37-0.1-0.67-0.22-0.91-0.35
		l-1.34-0.84c-0.46-0.29-0.82-0.52-1.09-0.71c-0.27-0.19-0.43-0.32-0.48-0.4l-0.37-0.73c-0.25-0.14-0.45-0.27-0.6-0.37
		s-0.26-0.18-0.32-0.26s-0.22-0.31-0.49-0.71c-0.27-0.4-0.64-0.96-1.11-1.68c-0.04-0.18-0.11-0.39-0.19-0.63
		c-0.08-0.24-0.19-0.5-0.31-0.77l-0.29-0.26c-0.06-0.07-0.12-0.17-0.16-0.29c-0.05-0.12-0.1-0.26-0.14-0.42
		c-0.17-0.61-0.34-1.23-0.51-1.85s-0.34-1.23-0.49-1.82c-0.09-0.47-0.15-1-0.16-1.58c-0.01-0.58,0.01-1.21,0.07-1.88
		c0.01-0.16,0-0.36,0-0.6s0-0.52,0.02-0.82c0.08-0.22,0.14-0.51,0.21-0.88s0.12-0.83,0.18-1.37c0.06-0.11,0.12-0.25,0.2-0.42
		c0.07-0.17,0.16-0.37,0.26-0.62c0.02-0.06,0.04-0.16,0.05-0.28c0.01-0.12,0.03-0.25,0.06-0.4c0.02-0.17,0.26-0.61,0.73-1.31
		s0.79-1.13,0.98-1.29c0.41-0.35,0.78-0.62,1.12-0.8c0.33-0.19,0.64-0.29,0.92-0.31l0.5-0.28c0.42-0.22,0.92-0.18,1.49,0.14
		c0.56,0.32,1.22,0.92,1.96,1.79c0.35,0.41,0.62,0.74,0.83,0.99c0.2,0.25,0.33,0.43,0.39,0.54c0.18,0.31,0.4,0.7,0.68,1.16
		s0.59,1.01,0.94,1.63c0.11,0.15,0.25,0.44,0.42,0.86c0.17,0.42,0.37,0.95,0.6,1.58c0.26,0.69,0.44,1.22,0.54,1.61
		c0.1,0.39,0.12,0.63,0.05,0.73c-0.28,0.39-0.58,0.82-0.9,1.27c-0.2,0.17-0.35,0.27-0.46,0.31c-0.11,0.04-0.19,0.02-0.25-0.05
		c-0.05-0.06-0.12-0.17-0.21-0.33c-0.08-0.16-0.15-0.27-0.19-0.32c-0.32-0.32-0.63-0.64-0.96-0.96c-0.11-0.12-0.28-0.4-0.52-0.83
		c-0.24-0.43-0.53-0.99-0.88-1.68c-0.38-0.75-0.67-1.36-0.86-1.82c-0.19-0.46-0.29-0.76-0.3-0.91c0.05-0.46,0.04-0.85-0.02-1.17
		c-0.07-0.32-0.18-0.57-0.33-0.75c-0.21-0.25-0.46-0.42-0.74-0.5c-0.28-0.08-0.58-0.07-0.91,0.03c-0.28,0.14-0.56,0.29-0.83,0.45
		s-0.56,0.29-0.86,0.42c-0.13,0.23-0.25,0.43-0.37,0.59s-0.22,0.3-0.3,0.42c-0.51,0.61-0.85,1.37-1.01,2.3
		c-0.16,0.92-0.15,2,0.04,3.23c0.18,1.04,0.45,2.02,0.8,2.94s0.78,1.76,1.29,2.54c0.15,0.24,0.33,0.55,0.54,0.91
		c0.22,0.36,0.46,0.8,0.73,1.31c0.31,0.2,0.59,0.38,0.84,0.55l0.91,1.33c0.04,0.04,0.16,0.1,0.35,0.17s0.5,0.17,0.89,0.29
		c0.23,0.07,0.47,0.17,0.72,0.31c0.26,0.14,0.52,0.32,0.78,0.54c0.07,0.05,0.16,0.09,0.27,0.12c0.11,0.03,0.21,0.04,0.31,0.03
		c0.23,0,0.45-0.01,0.65-0.02c0.73,0.08,1.41,0.04,2.02-0.11c0.61-0.16,1.16-0.45,1.65-0.87c0.04-0.04,0.19-0.2,0.45-0.5
		c0.25-0.29,0.59-0.7,1.01-1.23c0.04-0.14,0.1-0.3,0.2-0.49c0.09-0.19,0.21-0.4,0.36-0.65c0.03-0.33,0.1-0.61,0.21-0.84
		c0.11-0.23,0.25-0.41,0.4-0.54c-0.01-0.1-0.02-0.22-0.03-0.37c-0.01-0.15-0.01-0.32,0.01-0.52c0.18-0.33,0.3-0.68,0.38-1.05
		c0.07-0.36,0.12-0.75,0.12-1.16C277.05,387.86,277.58,388.12,277.62,388.17z"/>
	<path class="st1" d="M287.71,377.43l1.56,0.8c-0.02,0.17-0.06,0.37-0.11,0.59c-0.05,0.22-0.12,0.47-0.21,0.74
		c-0.13,0.22-0.28,0.5-0.45,0.84c-0.17,0.34-0.35,0.73-0.56,1.17c-0.12,0.38-0.23,0.68-0.33,0.9c-0.1,0.22-0.18,0.36-0.24,0.41
		c-0.12,0.1-0.29,0.33-0.51,0.69c-0.22,0.36-0.5,0.85-0.83,1.47c-0.18,0.33-0.38,0.67-0.59,1.03s-0.44,0.71-0.7,1.07l-0.98,0.53
		l-0.31,0.66c-0.17,0.14-0.34,0.29-0.52,0.43s-0.35,0.28-0.53,0.39c-0.27,0.21-0.49,0.34-0.67,0.39c-0.18,0.05-0.32,0.01-0.42-0.1
		l-0.35-0.58l-0.16-0.03c-0.3,0.26-0.54,0.39-0.71,0.4c-0.17,0.01-0.38-0.14-0.63-0.43c-0.11-0.13-0.3-0.36-0.55-0.69
		c-0.25-0.32-0.58-0.75-0.98-1.27c-0.04-0.04-0.09-0.16-0.15-0.35c-0.06-0.19-0.12-0.32-0.17-0.38c-0.12-0.05-0.21-0.1-0.26-0.15
		s-0.1-0.09-0.14-0.14c-0.28-0.36-0.61-0.82-0.98-1.38c-0.38-0.56-0.82-1.22-1.32-1.99c-0.25-0.51-0.56-1.06-0.94-1.65
		c-0.35-0.38-0.71-0.76-1.08-1.16c-0.93-1.76-1.86-3.54-2.79-5.33c-0.17-0.31-0.29-0.65-0.35-1.02s-0.08-0.75-0.06-1.15
		c0.04-0.14,0.05-0.24,0.05-0.3c-0.03-0.12-0.05-0.27-0.08-0.45c-0.03-0.18-0.06-0.39-0.09-0.62c0.02-0.08,0.06-0.21,0.12-0.38
		c0.06-0.17,0.14-0.41,0.24-0.71c0.03-0.15,0.06-0.32,0.09-0.52c0.03-0.2,0.07-0.43,0.1-0.69c0.16-0.49,0.29-0.98,0.39-1.45
		c0.1-0.47,0.34-0.93,0.73-1.35c0.2-0.18,0.39-0.37,0.59-0.56c0.19-0.19,0.38-0.37,0.55-0.55c0.15-0.19,0.28-0.34,0.41-0.47
		c0.07-0.09,0.14-0.18,0.19-0.25c0.05-0.07,0.11-0.14,0.16-0.18c0.05-0.05,0.13-0.1,0.24-0.17c0.1-0.07,0.25-0.15,0.43-0.26
		c0.13-0.1,0.24-0.18,0.33-0.26c0.09-0.08,0.17-0.15,0.24-0.23c0.45-0.2,0.84-0.27,1.19-0.21c0.34,0.06,0.64,0.23,0.88,0.52
		c0.53,0.62,0.86,1.12,0.99,1.52c0.13,0.4,0.07,0.71-0.19,0.93c-0.2,0.17-0.5,0.26-0.92,0.27s-1.18,0.49-2.28,1.42
		c-0.38,0.48-0.75,0.95-1.12,1.42c0.02,0.11,0.01,0.21-0.02,0.29c-0.03,0.08-0.06,0.16-0.09,0.21l-0.62,0.23
		c-0.1,0.18-0.13,0.46-0.11,0.85c0.03,0.39,0.12,0.88,0.28,1.47c0.03,0.13,0.09,0.27,0.18,0.42c0.09,0.15,0.21,0.32,0.37,0.5
		c0.39,0.78,0.75,1.54,1.1,2.27c0.4,0.77,0.69,1.36,0.88,1.77c0.19,0.41,0.3,0.66,0.35,0.74c0.05,0.11,0.1,0.22,0.15,0.31
		c0.05,0.1,0.11,0.18,0.18,0.26c0.1,0.12,0.2,0.19,0.29,0.21c0.1,0.02,0.19,0,0.28-0.08c0.08-0.07,0.15-0.38,0.21-0.94
		c0.06-0.56,0.15-0.92,0.27-1.08c0.14-0.21,0.28-0.43,0.42-0.66c0.14-0.23,0.27-0.47,0.4-0.73c0.06-0.1,0.24-0.31,0.54-0.65
		c0.31-0.34,0.74-0.8,1.3-1.39l0.47-0.21l0.59-0.74l0.52-0.15c0.17,0.01,0.34,0.05,0.53,0.12c0.19,0.06,0.38,0.15,0.57,0.24
		c0.46,0.53,0.74,0.99,0.86,1.37c0.12,0.38,0.06,0.66-0.17,0.86l-0.99,0.33c-0.55,0.58-1.1,1.15-1.64,1.72
		c-0.54,0.56-1.1,1.13-1.67,1.71c-0.62,0.79-0.99,1.53-1.1,2.21c-0.11,0.68,0.04,1.32,0.47,1.91c0.09,0.12,0.21,0.33,0.36,0.61
		c0.15,0.29,0.35,0.64,0.58,1.06l0.44,0.32c0.25,0.45,0.49,0.87,0.74,1.24c0.25,0.38,0.48,0.7,0.71,0.97
		c0.08,0.09,0.14,0.14,0.21,0.16c0.06,0.02,0.1,0,0.12-0.05c0.4-0.4,0.72-0.72,0.96-0.96c0.24-0.24,0.42-0.4,0.54-0.48
		c0.25-0.18,0.5-0.36,0.75-0.55l0.79-0.79c0.07-0.09,0.21-0.33,0.4-0.71c0.19-0.38,0.41-0.67,0.65-0.88
		c0.26-0.22,0.5-0.47,0.71-0.75c0.22-0.28,0.41-0.56,0.57-0.86c0.17-0.29,0.33-0.59,0.48-0.89c0.16-0.29,0.32-0.59,0.48-0.88
		c0.07-0.1,0.14-0.25,0.23-0.45C287.52,377.96,287.61,377.72,287.71,377.43z"/>
	<path class="st1" d="M302.24,367.16c-0.09,0.43-0.22,0.95-0.39,1.56c-0.17,0.61-0.38,1.3-0.64,2.07c-0.25,0.69-0.47,1.29-0.67,1.81
		c-0.2,0.52-0.38,0.93-0.55,1.24c-0.22,0.48-0.5,0.93-0.85,1.36c-0.35,0.43-0.73,0.82-1.16,1.19c-0.13,0.11-0.3,0.22-0.5,0.32
		c-0.2,0.1-0.42,0.2-0.65,0.31c-0.29,0.14-0.53,0.25-0.73,0.34s-0.35,0.18-0.47,0.26l-0.3-0.02l-0.43,0.28
		c-0.18,0.14-0.45,0.22-0.83,0.26c-0.37,0.04-0.82,0.04-1.34-0.01c-0.5-0.04-0.93-0.11-1.3-0.21s-0.67-0.22-0.91-0.35l-1.34-0.84
		c-0.46-0.29-0.82-0.52-1.09-0.71c-0.27-0.19-0.43-0.32-0.48-0.4l-0.37-0.73c-0.25-0.14-0.45-0.27-0.6-0.37
		c-0.15-0.1-0.26-0.18-0.32-0.26c-0.06-0.07-0.22-0.31-0.49-0.71c-0.27-0.4-0.64-0.96-1.11-1.68c-0.04-0.18-0.11-0.39-0.19-0.63
		c-0.08-0.24-0.19-0.5-0.31-0.77l-0.29-0.26c-0.06-0.07-0.12-0.17-0.16-0.29c-0.05-0.12-0.1-0.26-0.14-0.42
		c-0.17-0.61-0.34-1.23-0.52-1.85c-0.17-0.62-0.34-1.23-0.49-1.82c-0.09-0.47-0.15-1-0.16-1.58c-0.01-0.58,0.01-1.21,0.07-1.88
		c0-0.16,0-0.36,0-0.6c-0.01-0.24,0-0.52,0.01-0.82c0.08-0.22,0.14-0.51,0.21-0.88s0.12-0.83,0.18-1.37
		c0.06-0.11,0.12-0.25,0.2-0.42c0.07-0.17,0.16-0.37,0.26-0.62c0.02-0.06,0.04-0.16,0.05-0.28c0.01-0.12,0.03-0.25,0.06-0.4
		c0.02-0.17,0.26-0.61,0.73-1.31s0.79-1.13,0.98-1.29c0.41-0.35,0.78-0.62,1.12-0.8c0.33-0.19,0.64-0.29,0.92-0.31l0.5-0.28
		c0.42-0.22,0.92-0.18,1.48,0.14c0.56,0.32,1.22,0.92,1.96,1.79c0.35,0.41,0.62,0.74,0.83,0.99c0.2,0.25,0.33,0.43,0.39,0.54
		c0.17,0.31,0.4,0.7,0.68,1.16s0.59,1.01,0.94,1.63c0.11,0.15,0.25,0.44,0.42,0.86c0.17,0.42,0.37,0.95,0.6,1.58
		c0.26,0.69,0.44,1.22,0.54,1.61c0.1,0.39,0.12,0.63,0.05,0.73c-0.28,0.39-0.58,0.82-0.9,1.27c-0.2,0.17-0.35,0.27-0.45,0.31
		s-0.19,0.02-0.25-0.05c-0.05-0.06-0.12-0.17-0.21-0.33c-0.08-0.16-0.15-0.27-0.19-0.32c-0.32-0.32-0.64-0.64-0.96-0.96
		c-0.11-0.12-0.28-0.4-0.52-0.83c-0.24-0.43-0.53-0.99-0.88-1.68c-0.38-0.75-0.67-1.36-0.86-1.82c-0.19-0.46-0.29-0.76-0.3-0.91
		c0.05-0.46,0.04-0.85-0.02-1.17c-0.07-0.32-0.18-0.57-0.33-0.75c-0.21-0.25-0.46-0.42-0.74-0.5c-0.28-0.08-0.58-0.07-0.91,0.03
		c-0.28,0.14-0.55,0.29-0.83,0.45c-0.28,0.15-0.56,0.29-0.86,0.42c-0.13,0.23-0.25,0.43-0.36,0.59c-0.12,0.16-0.22,0.3-0.3,0.42
		c-0.51,0.61-0.85,1.37-1.01,2.3c-0.16,0.92-0.15,2,0.04,3.23c0.18,1.04,0.45,2.02,0.8,2.94c0.35,0.91,0.78,1.76,1.29,2.54
		c0.15,0.24,0.33,0.55,0.55,0.91c0.22,0.36,0.46,0.8,0.73,1.31c0.31,0.2,0.59,0.38,0.84,0.55l0.9,1.33c0.04,0.04,0.16,0.1,0.35,0.17
		c0.2,0.07,0.5,0.17,0.89,0.29c0.23,0.07,0.47,0.17,0.72,0.31c0.25,0.14,0.51,0.32,0.78,0.54c0.07,0.05,0.16,0.09,0.27,0.12
		c0.11,0.03,0.21,0.04,0.32,0.03c0.23,0,0.45-0.01,0.65-0.02c0.73,0.08,1.41,0.04,2.02-0.11c0.61-0.16,1.16-0.45,1.65-0.87
		c0.04-0.04,0.19-0.2,0.44-0.5c0.25-0.29,0.59-0.7,1.01-1.23c0.04-0.14,0.1-0.3,0.19-0.49c0.09-0.19,0.21-0.4,0.36-0.65
		c0.03-0.33,0.1-0.61,0.21-0.84c0.11-0.23,0.25-0.41,0.4-0.54c-0.01-0.1-0.02-0.22-0.03-0.37c-0.01-0.15-0.01-0.32,0.01-0.52
		c0.18-0.33,0.3-0.68,0.38-1.05c0.07-0.36,0.12-0.75,0.12-1.16C301.67,366.86,302.2,367.12,302.24,367.16z"/>
	<path class="st1" d="M297.58,360.65c-0.1-0.12-0.18-0.28-0.25-0.5s-0.12-0.49-0.17-0.81c-0.04-0.43-0.08-0.76-0.12-0.99
		c-0.04-0.23-0.07-0.37-0.1-0.43c-0.04-0.14-0.09-0.32-0.15-0.54c-0.06-0.23-0.13-0.48-0.21-0.77c0-0.17-0.07-0.47-0.23-0.9
		c-0.16-0.42-0.4-0.97-0.7-1.63c-0.05-0.2-0.12-0.44-0.21-0.71c-0.09-0.27-0.2-0.59-0.32-0.97c-0.14-0.24-0.28-0.53-0.42-0.89
		c-0.14-0.36-0.27-0.77-0.41-1.24c-0.09-0.48-0.16-0.96-0.22-1.45c-0.06-0.49,0.03-0.97,0.29-1.45c0.24-0.03,0.43-0.03,0.6,0
		c0.16,0.03,0.28,0.09,0.36,0.18c0.19,0.22,0.34,0.61,0.46,1.15s0.23,0.88,0.34,1.01c0.06,0.07,0.16,0.1,0.29,0.1
		c0.04-0.1,0.08-0.31,0.11-0.65c0.04-0.34,0.08-0.79,0.12-1.35c0.05-0.44,0.12-0.83,0.19-1.14c0.07-0.32,0.19-0.57,0.33-0.76
		c0.08-0.14,0.19-0.31,0.34-0.5c0.15-0.19,0.3-0.42,0.45-0.69c0.06-0.16,0.1-0.3,0.12-0.43c0.02-0.11,0.07-0.24,0.16-0.41l0.24-0.13
		c0.15,0.01,0.44-0.1,0.88-0.32c0.44-0.23,0.71-0.38,0.8-0.47c0.12-0.02,0.27-0.03,0.46-0.03s0.42,0,0.69-0.03
		c0.54-0.09,1.14-0.06,1.8,0.09c0.66,0.15,1.38,0.43,2.15,0.83c0.71,0.36,1.34,0.75,1.9,1.15c0.55,0.41,1.03,0.84,1.44,1.32
		c1.27,1.49,2.19,2.94,2.75,4.36s0.76,2.8,0.61,4.15c-0.01,0.13-0.02,0.29-0.04,0.48s-0.04,0.42-0.07,0.69l0.12,0.15
		c0.06,0.1,0.09,0.24,0.09,0.42c0,0.17-0.01,0.39-0.05,0.66c-0.07,0.58-0.15,1.17-0.22,1.77s-0.17,1.19-0.27,1.79
		c-0.12,0.76-0.28,1.43-0.5,1.99c-0.21,0.56-0.46,1.05-0.76,1.46c-0.04,0.28-0.14,0.56-0.32,0.84c-0.17,0.28-0.43,0.56-0.76,0.85
		c-0.5,0.43-0.93,0.74-1.3,0.94c-0.37,0.2-0.67,0.29-0.91,0.28c-0.15-0.01-0.31-0.01-0.49,0s-0.39,0.02-0.64,0.01
		c-0.25,0.01-0.57-0.08-0.97-0.27c-0.4-0.19-0.86-0.49-1.38-0.89c-0.38-0.3-0.74-0.61-1.08-0.92c-0.33-0.31-0.62-0.61-0.88-0.9
		c-0.08-0.09-0.18-0.26-0.31-0.5c-0.13-0.24-0.25-0.41-0.35-0.51c-0.17-0.21-0.34-0.38-0.48-0.51c-0.14-0.16-0.3-0.46-0.5-0.89
		s-0.39-0.75-0.56-0.95c-0.04-0.04-0.12-0.09-0.25-0.13c-0.01,0.28,0.02,0.52,0.07,0.7c0.02,0.13,0.02,0.25-0.02,0.36
		c-0.03,0.1-0.08,0.18-0.14,0.24c-0.1,0.08-0.21,0.11-0.34,0.08c-0.13-0.03-0.26-0.13-0.39-0.29c-0.09-0.11-0.2-0.29-0.34-0.54
		C297.79,360.95,297.68,360.76,297.58,360.65z M300.02,347.26c-0.21,0.18-0.41,0.4-0.59,0.64c-0.18,0.24-0.34,0.51-0.49,0.81
		l-0.81,1.68c-0.05,0.12-0.09,0.28-0.12,0.47s-0.04,0.43-0.03,0.71l0.04,1.29c0,0.4,0.19,0.97,0.56,1.72s0.92,1.66,1.65,2.75
		c0.56,0.83,1.1,1.59,1.62,2.28c0.52,0.69,1.02,1.3,1.49,1.86c0.97,1.13,1.86,1.83,2.68,2.09c0.82,0.26,1.59,0.09,2.29-0.51
		c0.33-0.28,0.63-0.68,0.89-1.21c0.26-0.52,0.48-1.17,0.66-1.94c0.15-0.65,0.25-1.27,0.3-1.84c0.05-0.57,0.04-1.11-0.03-1.6
		c-0.02-0.2-0.1-0.58-0.25-1.15c-0.15-0.56-0.35-1.34-0.61-2.32c-0.21-0.7-0.48-1.36-0.8-1.99s-0.72-1.22-1.19-1.77
		c-0.28-0.22-0.56-0.44-0.85-0.64l-0.4-0.65c-0.18-0.03-0.34-0.06-0.48-0.1c-0.09-0.05-0.16-0.09-0.22-0.12
		c-1.1-0.73-2.09-1.13-2.98-1.21C301.51,346.41,300.72,346.67,300.02,347.26z"/>
	<path class="st1" d="M317.84,353.47c-0.43-0.5-0.77-0.94-1.02-1.31c-0.25-0.38-0.44-0.69-0.55-0.93c-0.15-0.14-0.3-0.27-0.47-0.41
		c-0.16-0.19-0.4-0.52-0.73-0.99c-0.33-0.48-0.75-1.1-1.26-1.88c-0.5-0.75-0.88-1.33-1.13-1.75c-0.26-0.42-0.41-0.68-0.45-0.78
		c-0.15-0.14-0.31-0.28-0.48-0.44c-0.17-0.16-0.38-0.32-0.62-0.49l-0.48,0.04l-0.2-0.1c-0.2-0.26-0.39-0.53-0.6-0.8
		c-0.2-0.27-0.39-0.55-0.57-0.84c-0.26-0.34-0.45-0.65-0.59-0.95c-0.14-0.3-0.25-0.57-0.33-0.81c-0.01-0.07-0.04-0.15-0.07-0.26
		s-0.07-0.23-0.09-0.36c-0.19-0.39-0.39-0.78-0.58-1.17c-0.19-0.39-0.38-0.77-0.54-1.15c-0.12-0.42-0.14-0.83-0.05-1.23
		c0.09-0.4,0.29-0.78,0.6-1.14c0.14-0.35,0.26-0.63,0.38-0.85c0.12-0.22,0.24-0.37,0.34-0.47c0.12-0.11,0.26-0.14,0.42-0.1
		c0.15,0.04,0.31,0.14,0.46,0.32c0.06,0.07,0.24,0.35,0.53,0.83c0.29,0.48,0.68,1.17,1.17,2.04c0.19,0.27,0.39,0.61,0.62,1
		c0.23,0.4,0.49,0.88,0.79,1.44c0.32,0.64,0.68,1.33,1.08,2.07c0.41,0.74,0.88,1.53,1.42,2.38c0.23,0.36,0.45,0.72,0.66,1.07
		c0.21,0.36,0.43,0.72,0.66,1.07c0.26,0.41,0.51,0.8,0.74,1.16c0.24,0.36,0.47,0.67,0.69,0.93c0.08,0.1,0.17,0.19,0.26,0.26
		c0.09,0.08,0.17,0.16,0.24,0.24c0.1,0.08,0.21,0.21,0.32,0.39c0.11,0.18,0.25,0.39,0.42,0.64c0.15,0.24,0.28,0.46,0.4,0.66
		c0.12,0.2,0.22,0.34,0.3,0.43c0.39,0.45,0.71,0.81,0.97,1.07s0.44,0.43,0.55,0.49c0.27,0.19,0.55,0.39,0.85,0.62
		c0.13,0.15,0.12,0.55-0.03,1.19s-0.31,1.04-0.49,1.19c-0.11,0.09-0.24,0.14-0.38,0.13c-0.15,0-0.33-0.04-0.55-0.12
		c-0.19-0.09-0.34-0.18-0.48-0.26c-0.13-0.09-0.24-0.18-0.33-0.28c-0.04-0.05-0.1-0.15-0.16-0.3c-0.06-0.15-0.12-0.25-0.16-0.3
		c-0.3-0.21-0.57-0.36-0.81-0.46c0.06,0.1,0.03,0.09-0.07-0.03C318.34,354.06,318.14,353.82,317.84,353.47z"/>
	<path class="st1" d="M314.86,335.57l-0.96-0.69c-0.1-0.22-0.2-0.45-0.3-0.68c-0.1-0.23-0.21-0.45-0.31-0.67
		c-0.05-0.17-0.04-0.34,0.03-0.52c0.07-0.18,0.22-0.36,0.43-0.54c0.08-0.07,0.19-0.19,0.32-0.37c0.13-0.18,0.24-0.3,0.31-0.36
		c0.08-0.07,0.24-0.1,0.48-0.09c0.24,0.01,0.39,0,0.46-0.02c0.02-0.1,0.04-0.24,0.04-0.43c0-0.19-0.01-0.43-0.02-0.72
		c-0.01-0.24,0.01-0.45,0.04-0.63c0.03-0.18,0.09-0.34,0.19-0.48c0.21-0.05,0.38-0.1,0.53-0.15c0.09-0.02,0.17-0.01,0.23,0.01
		c0.06,0.03,0.12,0.08,0.19,0.16c0.04,0.04,0.1,0.16,0.18,0.35c0.08,0.19,0.18,0.44,0.31,0.77c0.13,0.35,0.24,0.64,0.34,0.86
		c0.1,0.22,0.18,0.39,0.25,0.51c0.04,0.32,0.09,0.59,0.16,0.82c0.06,0.23,0.16,0.42,0.28,0.56c0.15,0.18,0.43,0.4,0.84,0.66
		c0.41,0.26,0.94,0.57,1.59,0.92c0.89,0.47,1.82,0.97,2.77,1.49c1,0.63,1.98,1.22,2.96,1.76c0.97,0.55,1.93,1.05,2.88,1.51
		c0.98,0.49,1.74,0.82,2.28,1.02s0.85,0.24,0.96,0.15c0.09-0.08,0.11-0.18,0.06-0.32c-0.05-0.14-0.17-0.32-0.36-0.54
		c-0.08-0.09-0.16-0.21-0.26-0.38s-0.2-0.35-0.29-0.56c-0.13-0.31-0.28-0.65-0.47-1.01c-0.31-0.54-0.57-1.02-0.79-1.43
		c-0.22-0.41-0.41-0.77-0.57-1.06c-0.1-0.19-0.35-0.56-0.75-1.12c-0.4-0.55-0.95-1.29-1.66-2.21c-0.08-0.09-0.17-0.23-0.27-0.41
		c-0.11-0.19-0.23-0.39-0.38-0.62c-0.14-0.24-0.26-0.43-0.37-0.6c-0.11-0.16-0.21-0.3-0.31-0.42c-0.17-0.21-0.46-0.49-0.85-0.86
		c-0.39-0.37-0.67-0.65-0.85-0.86c-0.34-0.68-0.69-1.33-1.03-1.96c-0.3-0.55-0.53-1.01-0.71-1.4c-0.17-0.38-0.3-0.68-0.37-0.9
		c-0.13-0.44-0.19-0.87-0.19-1.28c0-0.41,0.07-0.8,0.19-1.16l0.11-0.09c0.09-0.08,0.17-0.11,0.23-0.1c0.06,0.01,0.13,0.05,0.2,0.13
		c0.12,0.23,0.2,0.4,0.25,0.53c0.16,0.14,0.33,0.28,0.51,0.44c0.16,0.25,0.29,0.46,0.39,0.64c0.07,0.11,0.18,0.28,0.33,0.49
		c0.15,0.22,0.35,0.47,0.6,0.75c0.09,0.11,0.27,0.35,0.55,0.72c0.27,0.38,0.63,0.89,1.06,1.54c0.66,0.88,1.31,1.77,1.94,2.67
		c0.63,0.89,1.26,1.79,1.89,2.69c0.78,1.06,1.46,2.06,2.03,3s1.04,1.81,1.41,2.62c0.29,0.43,0.58,0.94,0.87,1.52
		c0.29,0.58,0.58,1.24,0.87,1.96l0.16,1.02c0,0.06-0.18,0.41-0.55,1.06c-0.37,0.65-0.59,1-0.65,1.05c-0.13,0.11-0.48,0.11-1.05-0.01
		c-0.57-0.12-1.34-0.39-2.32-0.8c-0.9-0.35-1.64-0.66-2.21-0.9c-0.57-0.25-0.97-0.46-1.2-0.62c-0.09-0.07-0.2-0.15-0.34-0.24
		c-0.14-0.09-0.3-0.2-0.49-0.33c-0.51-0.24-1.15-0.53-1.92-0.88c-0.77-0.35-1.67-0.77-2.7-1.26c-0.23-0.14-0.47-0.27-0.72-0.37
		c-0.25-0.1-0.53-0.2-0.84-0.29l-0.06,0.12c0.09,0.23,0.22,0.51,0.38,0.83c0.17,0.32,0.37,0.7,0.61,1.15
		c0.12,0.32,0.21,0.61,0.27,0.88c0.31,0.63,0.63,1.32,0.98,2.07s0.72,1.56,1.12,2.42c0.14,0.28,0.3,0.56,0.46,0.86
		c0.16,0.3,0.32,0.61,0.47,0.94l0.14,0.65c0.19,0.3,0.38,0.59,0.55,0.89c0.11,0.26,0.25,0.57,0.4,0.94s0.33,0.81,0.54,1.33
		c0.15,0.23,0.21,0.44,0.2,0.63c-0.01,0.19-0.11,0.37-0.28,0.53c0.01,0.05,0.01,0.12-0.01,0.2s-0.08,0.2-0.17,0.34
		c-0.07,0.09-0.18,0.1-0.32,0.03s-0.3-0.22-0.48-0.43c-0.11-0.12-0.25-0.34-0.44-0.65c-0.18-0.31-0.41-0.7-0.67-1.19
		c-0.3-0.55-0.53-0.98-0.7-1.29s-0.27-0.51-0.31-0.6c-0.15-0.24-0.35-0.56-0.6-0.94s-0.54-0.83-0.88-1.33
		c-0.08-0.13-0.17-0.3-0.28-0.51c-0.11-0.21-0.23-0.45-0.37-0.74c-0.11-0.22-0.43-0.78-0.97-1.68c-0.54-0.9-1.3-2.15-2.29-3.74
		C316.81,338.73,315.84,337.15,314.86,335.57z"/>
</g>
<path class="st1" d="M204.29,439.28c82.04-6.26,164.09-12.52,246.13-18.78v13.7l-246.13,9.39c-1.85-0.55-3.19-1.51-3.13-2.35
	c0.09-1.29,3.51-2.22,3.63-1.99c0.05,0.09-0.38,0.5-0.5,0.43C204.24,439.65,204.23,439.53,204.29,439.28z"/>
<path class="st2" d="M428.55,422.81l0.54,12.51l22.12-1.13c0.46-0.91,1.71-3.67,1.56-7.5c-0.12-3.06-1.08-5.25-1.56-6.2
	C443.65,421.27,436.1,422.04,428.55,422.81z"/>
</svg>
